#N canvas 100 100 1200 800 12;
#X obj 50 50 metro 2000;
#X obj 50 100 f 0;
#X obj 80 100 + 1;
#X obj 110 100 mod 8;
#X obj 50 150 select 0 1 2 3 4 5 6 7;
#X msg 50 200 220 277 330;
#X msg 100 200 246 311 370;
#X msg 150 200 220 277 415;
#X msg 200 200 196 246 294;
#X msg 250 200 220 277 330;
#X msg 300 200 185 233 277;
#X msg 350 200 207 261 311;
#X msg 400 200 220 277 330;
#X obj 50 300 unpack f f f;
#X obj 150 300 unpack f f f;
#X obj 250 300 unpack f f f;
#X obj 50 350 osc~;
#X obj 150 350 osc~;
#X obj 250 350 osc~;
#X obj 350 350 osc~;
#X obj 450 350 osc~;
#X obj 550 350 osc~;
#X obj 50 400 *~ 0.4;
#X obj 150 400 *~ 0.3;
#X obj 250 400 *~ 0.2;
#X obj 350 400 *~ 0.4;
#X obj 450 400 *~ 0.3;
#X obj 550 400 *~ 0.2;
#X obj 50 450 +~;
#X obj 50 500 lop~ 1200;
#X obj 50 550 hip~ 40;
#X obj 50 600 *~ 0.7;
#X obj 50 650 dac~;
#X obj 700 50 tgl 15 0 empty empty PLAY_OLSON 17 7 0 10 -262144 -1 -1 0 1;
#X obj 700 100 loadbang;
#X msg 700 150 \; pd dsp 1;
#X text 50 10 Olson - Full Chord Melody;
#X text 700 200 Click PLAY_OLSON to start;
#X text 700 220 Each step plays 3-note chords;
#X text 700 240 Creates the dreamy BoC progression;
#X obj 50 125 print chord_step;
#X obj 50 275 print chord;
#X obj 200 450 delwrite~ delay 2000;
#X obj 200 500 delread~ delay 600;
#X obj 200 550 *~ 0.15;
#X obj 400 500 noise~;
#X obj 400 550 lop~ 100;
#X obj 400 600 *~ 0.02;
#X text 200 420 Delay for space;
#X text 400 470 Subtle tape noise;
#X connect 0 0 1 0;
#X connect 1 0 2 0;
#X connect 1 0 3 0;
#X connect 1 0 4 0;
#X connect 1 0 40 0;
#X connect 2 0 3 0;
#X connect 3 0 1 1;
#X connect 4 0 5 0;
#X connect 4 1 6 0;
#X connect 4 2 7 0;
#X connect 4 3 8 0;
#X connect 4 4 9 0;
#X connect 4 5 10 0;
#X connect 4 6 11 0;
#X connect 4 7 12 0;
#X connect 5 0 13 0;
#X connect 5 0 41 0;
#X connect 6 0 13 0;
#X connect 6 0 41 0;
#X connect 7 0 13 0;
#X connect 7 0 41 0;
#X connect 8 0 13 0;
#X connect 8 0 41 0;
#X connect 9 0 13 0;
#X connect 9 0 41 0;
#X connect 10 0 13 0;
#X connect 10 0 41 0;
#X connect 11 0 13 0;
#X connect 11 0 41 0;
#X connect 12 0 13 0;
#X connect 12 0 41 0;
#X connect 13 0 16 0;
#X connect 13 0 14 0;
#X connect 13 1 19 0;
#X connect 13 1 15 0;
#X connect 13 2 21 0;
#X connect 14 0 17 0;
#X connect 14 1 20 0;
#X connect 15 0 18 0;
#X connect 16 0 22 0;
#X connect 17 0 23 0;
#X connect 18 0 24 0;
#X connect 19 0 25 0;
#X connect 20 0 26 0;
#X connect 21 0 27 0;
#X connect 22 0 28 0;
#X connect 23 0 28 1;
#X connect 24 0 28 1;
#X connect 25 0 28 1;
#X connect 26 0 28 1;
#X connect 27 0 28 1;
#X connect 28 0 29 0;
#X connect 28 0 42 0;
#X connect 29 0 30 0;
#X connect 30 0 31 0;
#X connect 31 0 32 0;
#X connect 31 0 32 1;
#X connect 33 0 0 0;
#X connect 34 0 35 0;
#X connect 43 0 44 0;
#X connect 44 0 28 1;
#X connect 45 0 46 0;
#X connect 46 0 47 0;
#X connect 47 0 28 1;